# xmcd
#
# Track frame offsets: 
#        150
#        31307
#        52975
#        72655
#        91613
#        118133
#        142371
#        165864
#        187794
#        203067
#        227551
#        248857
#        272755
#
# Disc length: 4499 seconds
#
# Revision: 0
# Processed by: cddbd v1.5.2PL0 Copyright (c) Steve Scherf et al.
# Submitted via: ExactAudioCopy v1.0b3
#
DISCID=af11910d
DTITLE=Xandria - Theater Of Dimensions
DYEAR=2017
DGENRE=Metal
TTITLE0=Where The Heart Is Home
TTITLE1=Death To The Holy
TTITLE2=Foresaken Love
TTITLE3=Call Of Destiny
TTITLE4=We Are Murderers (We All)
TTITLE5=Dark Night Of The Soul
TTITLE6=When The Walls Came Down (Heartache Was Born)
TTITLE7=Ship Of Doom
TTITLE8=Ceilí
TTITLE9=Song For Sorrow And Woe
TTITLE10=Burn Me
TTITLE11=Queen Of Hearts Reborn
TTITLE12=A Theater Of Dimensions
EXTD=
EXTT0=
EXTT1=
EXTT2=
EXTT3=
EXTT4=
EXTT5=
EXTT6=
EXTT7=
EXTT8=
EXTT9=
EXTT10=
EXTT11=
EXTT12=
PLAYORDER=
